<mxfile host="drawio-plugin" modified="2021-11-04T07:15:51.841Z" agent="5.0 (X11; Linux x86_64) AppleWebKit/537.36 (KHTML, like Gecko) Chrome/89.0.4389.114 Safari/537.36" etag="p2P-c-ExOaThcf70sxAU" version="14.7.4" type="embed"><diagram id="C5RBs43oDa-KdzZeNtuy" name="Page-1"><mxGraphModel dx="789" dy="438" grid="1" gridSize="6" guides="1" tooltips="1" connect="1" arrows="1" fold="1" page="1" pageScale="1" pageWidth="1169" pageHeight="827" math="0" shadow="0"><root><mxCell id="WIyWlLk6GJQsqaUBKTNV-0"/><mxCell id="WIyWlLk6GJQsqaUBKTNV-1" parent="WIyWlLk6GJQsqaUBKTNV-0"/><mxCell id="189" style="edgeStyle=orthogonalEdgeStyle;rounded=0;orthogonalLoop=1;jettySize=auto;html=1;entryX=0.523;entryY=1.011;entryDx=0;entryDy=0;entryPerimeter=0;endArrow=block;endFill=0;dashed=1;" parent="WIyWlLk6GJQsqaUBKTNV-1" source="166" target="187" edge="1"><mxGeometry relative="1" as="geometry"/></mxCell><mxCell id="166" value="SubscriberaA" style="swimlane;fontStyle=1;align=center;verticalAlign=top;childLayout=stackLayout;horizontal=1;startSize=26;horizontalStack=0;resizeParent=1;resizeParentMax=0;resizeLast=0;collapsible=1;marginBottom=0;" parent="WIyWlLk6GJQsqaUBKTNV-1" vertex="1"><mxGeometry x="810" y="222" width="160" height="86" as="geometry"/></mxCell><mxCell id="167" value="..." style="text;strokeColor=none;fillColor=none;align=left;verticalAlign=top;spacingLeft=4;spacingRight=4;overflow=hidden;rotatable=0;points=[[0,0.5],[1,0.5]];portConstraint=eastwest;" parent="166" vertex="1"><mxGeometry y="26" width="160" height="26" as="geometry"/></mxCell><mxCell id="168" value="" style="line;strokeWidth=1;fillColor=none;align=left;verticalAlign=middle;spacingTop=-1;spacingLeft=3;spacingRight=3;rotatable=0;labelPosition=right;points=[];portConstraint=eastwest;" parent="166" vertex="1"><mxGeometry y="52" width="160" height="8" as="geometry"/></mxCell><mxCell id="169" value="..." style="text;strokeColor=none;fillColor=none;align=left;verticalAlign=top;spacingLeft=4;spacingRight=4;overflow=hidden;rotatable=0;points=[[0,0.5],[1,0.5]];portConstraint=eastwest;" parent="166" vertex="1"><mxGeometry y="60" width="160" height="26" as="geometry"/></mxCell><mxCell id="178" value="&lt;&lt;interface&gt;&gt;&#10;SubscriberInterface" style="swimlane;fontStyle=2;childLayout=stackLayout;horizontal=1;startSize=36;fillColor=none;horizontalStack=0;resizeParent=1;resizeParentMax=0;resizeLast=0;collapsible=1;marginBottom=0;" parent="WIyWlLk6GJQsqaUBKTNV-1" vertex="1"><mxGeometry x="912" y="78" width="132" height="62" as="geometry"/></mxCell><mxCell id="187" value="+ update(int): void" style="text;strokeColor=none;fillColor=none;align=left;verticalAlign=top;spacingLeft=4;spacingRight=4;overflow=hidden;rotatable=0;points=[[0,0.5],[1,0.5]];portConstraint=eastwest;" parent="178" vertex="1"><mxGeometry y="36" width="132" height="26" as="geometry"/></mxCell><mxCell id="183" value="Subject" style="swimlane;fontStyle=1;align=center;verticalAlign=top;childLayout=stackLayout;horizontal=1;startSize=26;horizontalStack=0;resizeParent=1;resizeParentMax=0;resizeLast=0;collapsible=1;marginBottom=0;" parent="WIyWlLk6GJQsqaUBKTNV-1" vertex="1"><mxGeometry x="486" y="72" width="246" height="186" as="geometry"/></mxCell><mxCell id="184" value="- state: int" style="text;strokeColor=none;fillColor=none;align=left;verticalAlign=top;spacingLeft=4;spacingRight=4;overflow=hidden;rotatable=0;points=[[0,0.5],[1,0.5]];portConstraint=eastwest;" parent="183" vertex="1"><mxGeometry y="26" width="246" height="26" as="geometry"/></mxCell><mxCell id="188" value="- subscribers: SubscriberInterface[]" style="text;strokeColor=none;fillColor=none;align=left;verticalAlign=top;spacingLeft=4;spacingRight=4;overflow=hidden;rotatable=0;points=[[0,0.5],[1,0.5]];portConstraint=eastwest;" parent="183" vertex="1"><mxGeometry y="52" width="246" height="26" as="geometry"/></mxCell><mxCell id="185" value="" style="line;strokeWidth=1;fillColor=none;align=left;verticalAlign=middle;spacingTop=-1;spacingLeft=3;spacingRight=3;rotatable=0;labelPosition=right;points=[];portConstraint=eastwest;" parent="183" vertex="1"><mxGeometry y="78" width="246" height="8" as="geometry"/></mxCell><mxCell id="177" value="+ subscribe(SubscriberInterface): void" style="text;strokeColor=none;fillColor=none;align=left;verticalAlign=top;spacingLeft=4;spacingRight=4;overflow=hidden;rotatable=0;points=[[0,0.5],[1,0.5]];portConstraint=eastwest;" parent="183" vertex="1"><mxGeometry y="86" width="246" height="22" as="geometry"/></mxCell><mxCell id="182" value="+ unsubscribe(SubscriberInterface): void" style="text;strokeColor=none;fillColor=none;align=left;verticalAlign=top;spacingLeft=4;spacingRight=4;overflow=hidden;rotatable=0;points=[[0,0.5],[1,0.5]];portConstraint=eastwest;" parent="183" vertex="1"><mxGeometry y="108" width="246" height="26" as="geometry"/></mxCell><mxCell id="199" value="+ someDo(): void" style="text;strokeColor=none;fillColor=none;align=left;verticalAlign=top;spacingLeft=4;spacingRight=4;overflow=hidden;rotatable=0;points=[[0,0.5],[1,0.5]];portConstraint=eastwest;" vertex="1" parent="183"><mxGeometry y="134" width="246" height="26" as="geometry"/></mxCell><mxCell id="186" value="+ notify(): void" style="text;strokeColor=none;fillColor=none;align=left;verticalAlign=top;spacingLeft=4;spacingRight=4;overflow=hidden;rotatable=0;points=[[0,0.5],[1,0.5]];portConstraint=eastwest;" parent="183" vertex="1"><mxGeometry y="160" width="246" height="26" as="geometry"/></mxCell><mxCell id="191" value="" style="endArrow=diamondThin;endFill=0;endSize=24;html=1;strokeWidth=1;entryX=1;entryY=0.5;entryDx=0;entryDy=0;exitX=0;exitY=0.5;exitDx=0;exitDy=0;" parent="WIyWlLk6GJQsqaUBKTNV-1" source="178" target="184" edge="1"><mxGeometry width="160" relative="1" as="geometry"><mxPoint x="630" y="282" as="sourcePoint"/><mxPoint x="790" y="282" as="targetPoint"/></mxGeometry></mxCell><mxCell id="192" value="1" style="edgeLabel;html=1;align=center;verticalAlign=middle;resizable=0;points=[];" parent="191" vertex="1" connectable="0"><mxGeometry x="-0.2386" y="-2" relative="1" as="geometry"><mxPoint x="-56" y="-10" as="offset"/></mxGeometry></mxCell><mxCell id="193" value="*" style="edgeLabel;html=1;align=center;verticalAlign=middle;resizable=0;points=[];" parent="191" vertex="1" connectable="0"><mxGeometry x="-0.1724" y="-4" relative="1" as="geometry"><mxPoint x="44" y="-4" as="offset"/></mxGeometry></mxCell><mxCell id="198" style="edgeStyle=orthogonalEdgeStyle;rounded=0;orthogonalLoop=1;jettySize=auto;html=1;exitX=0.75;exitY=0;exitDx=0;exitDy=0;endArrow=none;endFill=0;dashed=1;" edge="1" parent="WIyWlLk6GJQsqaUBKTNV-1" source="194"><mxGeometry relative="1" as="geometry"><mxPoint x="984" y="180" as="targetPoint"/><Array as="points"><mxPoint x="1134" y="180"/></Array></mxGeometry></mxCell><mxCell id="194" value="SubscriberaA" style="swimlane;fontStyle=1;align=center;verticalAlign=top;childLayout=stackLayout;horizontal=1;startSize=26;horizontalStack=0;resizeParent=1;resizeParentMax=0;resizeLast=0;collapsible=1;marginBottom=0;" vertex="1" parent="WIyWlLk6GJQsqaUBKTNV-1"><mxGeometry x="1014" y="222" width="160" height="86" as="geometry"/></mxCell><mxCell id="195" value="..." style="text;strokeColor=none;fillColor=none;align=left;verticalAlign=top;spacingLeft=4;spacingRight=4;overflow=hidden;rotatable=0;points=[[0,0.5],[1,0.5]];portConstraint=eastwest;" vertex="1" parent="194"><mxGeometry y="26" width="160" height="26" as="geometry"/></mxCell><mxCell id="196" value="" style="line;strokeWidth=1;fillColor=none;align=left;verticalAlign=middle;spacingTop=-1;spacingLeft=3;spacingRight=3;rotatable=0;labelPosition=right;points=[];portConstraint=eastwest;" vertex="1" parent="194"><mxGeometry y="52" width="160" height="8" as="geometry"/></mxCell><mxCell id="197" value="..." style="text;strokeColor=none;fillColor=none;align=left;verticalAlign=top;spacingLeft=4;spacingRight=4;overflow=hidden;rotatable=0;points=[[0,0.5],[1,0.5]];portConstraint=eastwest;" vertex="1" parent="194"><mxGeometry y="60" width="160" height="26" as="geometry"/></mxCell><mxCell id="59" value="Untitled Layer" parent="WIyWlLk6GJQsqaUBKTNV-0"/></root></mxGraphModel></diagram></mxfile>